# xmcd
#
# Track frame offsets:
#	150
#	14723
#	33644
#	47896
#	59058
#	76562
#	94331
#	115425
#	134905
#	148316
#	162930
#	177720
#
# Disc length: 2604 seconds
# Revision: 0
# Processed by: cddbd v1.5.2PL0 Copyright (c) Steve Scherf et al.
# Submitted via: dBpowerAMP V12.0
#
DISCID=be0a2a0c
DTITLE=Jeffrey Foucault - Salt as Wolves
DYEAR=1900
DGENRE=Blues
TTITLE0=Des Moines
TTITLE1=Rico
TTITLE2=Left This Town
TTITLE3=I Love You (And You Are a Fool)
TTITLE4=Blues for Jessie Mae
TTITLE5=Slow Talker
TTITLE6=Jesus Will Fix It for You
TTITLE7=Oh Mama
TTITLE8=Hurricane Lamp
TTITLE9=Strange Heat and Thunder
TTITLE10=Paradise
TTITLE11=Take Your Time
EXTD=
EXTT0=
EXTT1=
EXTT2=
EXTT3=
EXTT4=
EXTT5=
EXTT6=
EXTT7=
EXTT8=
EXTT9=
EXTT10=
EXTT11=
PLAYORDER=
